# xmcd
#
# Track frame offsets:
#	150
#	22612
#	39370
#	57317
#	83260
#	103402
#	120360
#	142512
#	164530
#	186407
#	206645
#
# Disc length: 3055 seconds
#
# Revision: 1
# Processed by: cddbd v1.5.2PL0 Copyright (c) Steve Scherf et al.
# Submitted via: EZCDAudioConverter 2.4.0.1
#
DISCID=820bed0b
DTITLE=許志安 - 相信愛情
DYEAR=1900
DGENRE=pop
TTITLE0=為什麼你背著我愛別人
TTITLE1=你愛上他
TTITLE2=錯到底
TTITLE3=第一天就愛你
TTITLE4=真心朋友
TTITLE5=別讓我喝太多
TTITLE6=相愛的人本來就該黏著
TTITLE7=我害怕都是沒有用
TTITLE8=愛上我的朋友
TTITLE9=對你的愛還依然在
TTITLE10=¬°¤°»ò§A­IµÛ§Ú·R§O¤H Rock Version
EXTD=
EXTT0=
EXTT1=
EXTT2=
EXTT3=
EXTT4=
EXTT5=
EXTT6=
EXTT7=
EXTT8=
EXTT9=
EXTT10=
PLAYORDER=
